<svg width="94" height="42" viewBox="0 0 94 42" fill="none" xmlns="http://www.w3.org/2000/svg">
<g filter="url(#filter0_df_734_249)">
<path d="M19.8106 23.997C19.7434 23.9969 19.6789 23.9702 19.6314 23.9227C19.5839 23.8751 19.5572 23.8106 19.5572 23.7434V20.7762C19.5572 20.6362 19.6708 20.5228 19.8106 20.5228H26.4272C26.5672 20.5228 26.6806 20.4092 26.6806 20.2692V17.102C26.6806 16.962 26.5672 16.8486 26.4272 16.8486H19.8106C19.7434 16.8485 19.6789 16.8218 19.6314 16.7743C19.5839 16.7267 19.5572 16.6622 19.5572 16.595V14.0026C19.5572 13.8626 19.6708 13.7492 19.8106 13.7492H26.8522C26.992 13.7492 27.1056 13.6358 27.1056 13.4958V10.2534C27.1056 10.1134 26.992 10 26.8522 10H14.5868C14.4468 10 14.3334 10.1136 14.3334 10.2534V27.4926C14.3334 27.6326 14.4468 27.7462 14.5868 27.7462H27.027C27.167 27.7462 27.2806 27.6326 27.2806 27.4926V24.2504C27.2806 24.1104 27.167 23.997 27.027 23.997H19.8106ZM34.3446 27.5722C34.379 27.676 34.476 27.7462 34.5852 27.7462H40.3678C40.477 27.7462 40.574 27.676 40.6084 27.5722L46.3142 10.3332C46.3268 10.2951 46.3302 10.2546 46.3241 10.2149C46.318 10.1752 46.3026 10.1376 46.2791 10.1051C46.2556 10.0725 46.2247 10.046 46.189 10.0278C46.1533 10.0095 46.1137 9.99999 46.0736 10H40.9962C40.881 10 40.7804 10.0776 40.751 10.189L38.0264 20.5478C37.7578 21.5978 37.6084 22.2662 37.5318 22.9724C37.5303 22.9861 37.5238 22.9987 37.5136 23.0078C37.5033 23.017 37.4901 23.0221 37.4764 23.0222C37.4627 23.0221 37.4495 23.017 37.4393 23.0078C37.4291 22.9986 37.4226 22.986 37.4212 22.9724C37.3446 22.2662 37.1952 21.5978 36.9266 20.5478L34.202 10.189C34.1877 10.1348 34.1559 10.0869 34.1116 10.0527C34.0672 10.0186 34.0128 10 33.9568 10H28.8794C28.7066 10 28.5844 10.1692 28.6388 10.3332L34.3446 27.5722ZM53.397 23.997C53.257 23.997 53.1436 23.8834 53.1436 23.7434V20.7762C53.1436 20.6362 53.257 20.5228 53.397 20.5228H60.0134C60.1534 20.5228 60.267 20.4092 60.267 20.2692V17.102C60.267 16.962 60.1534 16.8486 60.0134 16.8486H53.397C53.257 16.8486 53.1436 16.735 53.1436 16.595V14.0026C53.1436 13.8626 53.257 13.7492 53.397 13.7492H60.4384C60.5784 13.7492 60.6918 13.6358 60.6918 13.4958V10.2534C60.6918 10.1134 60.5784 10 60.4384 10H48.1732C48.0332 10 47.9196 10.1136 47.9196 10.2534V27.4926C47.9196 27.6326 48.0332 27.7462 48.1732 27.7462H60.6134C60.7534 27.7462 60.8668 27.6326 60.8668 27.4926V24.2504C60.8668 24.1104 60.7534 23.997 60.6134 23.997H53.397ZM63.3704 27.4926C63.3704 27.6326 63.4838 27.7462 63.6238 27.7462H67.9408C68.0808 27.7462 68.1942 27.6326 68.1942 27.4926V16.9282C68.1942 16.9118 68.2076 16.8986 68.224 16.8986C68.2362 16.8986 68.2472 16.9058 68.2516 16.9172C68.4784 17.4906 68.8982 18.2814 69.269 19.023L74.195 27.6186C74.24 27.6974 74.324 27.7462 74.4148 27.7462H79.4132C79.5532 27.7462 79.6668 27.6326 79.6668 27.4926V10.2536C79.6668 10.1136 79.5532 10 79.4132 10H75.0962C74.9562 10 74.8428 10.1136 74.8428 10.2534V20.8434C74.8428 20.8473 74.842 20.8511 74.8405 20.8547C74.839 20.8583 74.8368 20.8615 74.8341 20.8643C74.8313 20.867 74.8281 20.8692 74.8245 20.8706C74.8209 20.8721 74.8171 20.8728 74.8132 20.8728C74.8072 20.8729 74.8014 20.8711 74.7965 20.8677C74.7916 20.8644 74.7879 20.8596 74.7858 20.854C74.5574 20.2516 74.0644 19.2412 73.718 18.5734L69.0912 10.1318C69.0694 10.0919 69.0372 10.0587 68.9981 10.0355C68.959 10.0124 68.9144 10.0002 68.869 10.0002H63.6238C63.4838 10.0002 63.3704 10.1138 63.3704 10.2536V27.4926Z" stroke="#DC2525" stroke-width="2"/>
</g>
<g filter="url(#filter1_d_734_249)">
<path d="M20.0642 23.997C19.9297 23.997 19.8008 23.9436 19.7057 23.8485C19.6106 23.7534 19.5572 23.6245 19.5572 23.49V21.0296C19.5572 20.7496 19.7842 20.5228 20.0642 20.5228H26.1738C26.4538 20.5228 26.6806 20.2958 26.6806 20.0158V17.3554C26.6806 17.0754 26.4538 16.8486 26.1738 16.8486H20.0642C19.9297 16.8486 19.8008 16.7952 19.7057 16.7001C19.6106 16.605 19.5572 16.4761 19.5572 16.3416V14.2562C19.5572 13.9762 19.7842 13.7492 20.0642 13.7492H26.5986C26.8786 13.7492 27.1056 13.5222 27.1056 13.2424V10.507C27.1056 10.227 26.8786 10 26.5986 10H14.8404C14.7738 9.99997 14.7078 10.0131 14.6463 10.0385C14.5848 10.064 14.5289 10.1014 14.4818 10.1484C14.4347 10.1955 14.3974 10.2514 14.3719 10.3129C14.3464 10.3745 14.3333 10.4404 14.3334 10.507V27.2392C14.3334 27.5192 14.5604 27.7462 14.8402 27.7462H26.7736C27.0536 27.7462 27.2806 27.5192 27.2806 27.2392V24.5038C27.2806 24.2238 27.0536 23.997 26.7736 23.997H20.0642ZM34.2872 27.3984C34.3206 27.4996 34.3851 27.5877 34.4715 27.6501C34.5579 27.7126 34.6618 27.7462 34.7684 27.7462H40.1846C40.2912 27.7462 40.395 27.7126 40.4814 27.6501C40.5678 27.5877 40.6323 27.4996 40.6658 27.3984L46.204 10.6664C46.2293 10.5902 46.2361 10.5091 46.2239 10.4298C46.2117 10.3505 46.1808 10.2752 46.1338 10.2101C46.0869 10.145 46.0251 10.0921 45.9536 10.0555C45.8822 10.019 45.803 9.99997 45.7228 10H41.1916C41.0796 9.99999 40.9707 10.0371 40.8821 10.1055C40.7934 10.1739 40.7298 10.2697 40.7014 10.378L38.0264 20.5478C37.7578 21.5978 37.6084 22.2662 37.5318 22.9724C37.5303 22.9861 37.5238 22.9987 37.5136 23.0078C37.5033 23.017 37.4901 23.0221 37.4764 23.0222C37.4627 23.0221 37.4495 23.017 37.4393 23.0078C37.4291 22.9986 37.4226 22.986 37.4212 22.9724C37.3446 22.2662 37.1952 21.5978 36.9266 20.5478L34.2516 10.378C34.2231 10.2697 34.1596 10.1739 34.0709 10.1055C33.9822 10.0371 33.8734 9.99999 33.7614 10H29.2302C29.1499 9.99998 29.0708 10.019 28.9994 10.0555C28.928 10.092 28.8662 10.145 28.8192 10.2101C28.7722 10.2751 28.7414 10.3504 28.7292 10.4297C28.7169 10.509 28.7237 10.59 28.749 10.6662L34.2872 27.3984ZM53.6504 23.997C53.5838 23.997 53.5179 23.9839 53.4564 23.9584C53.3949 23.9329 53.339 23.8956 53.2919 23.8485C53.2449 23.8014 53.2076 23.7455 53.1821 23.684C53.1566 23.6225 53.1435 23.5566 53.1436 23.49V21.0296C53.1436 20.7496 53.3704 20.5228 53.6504 20.5228H59.76C60.04 20.5228 60.267 20.2958 60.267 20.0158V17.3554C60.267 17.0754 60.04 16.8486 59.76 16.8486H53.6504C53.5838 16.8486 53.5179 16.8355 53.4564 16.81C53.3949 16.7845 53.339 16.7472 53.2919 16.7001C53.2449 16.653 53.2076 16.5971 53.1821 16.5356C53.1566 16.4741 53.1435 16.4082 53.1436 16.3416V14.2562C53.1436 13.9762 53.3704 13.7492 53.6504 13.7492H60.185C60.3194 13.7491 60.4482 13.6957 60.5433 13.6007C60.6383 13.5057 60.6917 13.3768 60.6918 13.2424V10.507C60.6918 10.227 60.4648 10 60.185 10H48.4266C48.2921 10 48.1632 10.0534 48.0681 10.1485C47.973 10.2436 47.9196 10.3725 47.9196 10.507V27.2392C47.9196 27.5192 48.1466 27.7462 48.4266 27.7462H60.36C60.4944 27.7461 60.6233 27.6927 60.7183 27.5976C60.8134 27.5026 60.8668 27.3736 60.8668 27.2392V24.5038C60.8668 24.2238 60.6398 23.997 60.36 23.997H53.6504ZM63.3704 27.2392C63.3704 27.5192 63.5974 27.7462 63.8772 27.7462H67.6874C67.9674 27.7462 68.1942 27.5192 68.1942 27.2392V16.9282C68.1942 16.9118 68.2076 16.8986 68.224 16.8986C68.2362 16.8986 68.2472 16.9058 68.2516 16.9172C68.4784 17.4906 68.8982 18.2814 69.269 19.023L74.1218 27.4912C74.1662 27.5686 74.2302 27.633 74.3074 27.6778C74.3846 27.7226 74.4723 27.7462 74.5616 27.7462H79.1598C79.4398 27.7462 79.6668 27.5192 79.6668 27.2392V10.507C79.6668 10.227 79.4398 10 79.1598 10H75.3498C75.2153 10 75.0864 10.0534 74.9913 10.1485C74.8962 10.2436 74.8428 10.3725 74.8428 10.507V20.8432C74.8428 20.8471 74.842 20.8509 74.8405 20.8545C74.839 20.8581 74.8368 20.8613 74.8341 20.8641C74.8313 20.8668 74.8281 20.869 74.8245 20.8704C74.8209 20.8719 74.8171 20.8726 74.8132 20.8726C74.8072 20.8727 74.8014 20.8709 74.7965 20.8675C74.7916 20.8642 74.7879 20.8594 74.7858 20.8538C74.5574 20.2514 74.0644 19.241 73.718 18.5732L69.1634 10.2632C69.1197 10.1835 69.0553 10.117 68.9771 10.0707C68.8989 10.0244 68.8097 9.99999 68.7188 10H63.8772C63.7427 10.0001 63.6138 10.0535 63.5188 10.1486C63.4238 10.2436 63.3704 10.3726 63.3704 10.507V27.2392Z" stroke="#FF0000" stroke-width="0.2" stroke-linejoin="round"/>
</g>
<path d="M45.6321 30.4734H47.5284L49.5312 35.3597H49.6165L51.6193 30.4734H53.5156V37.7461H52.0241V33.0124H51.9638L50.0817 37.7106H49.0661L47.1839 32.9947H47.1236V37.7461H45.6321V30.4734ZM57.2186 37.8526C56.667 37.8526 56.1899 37.7354 55.7875 37.5011C55.3874 37.2643 55.0784 36.9353 54.8606 36.5138C54.6428 36.0901 54.5339 35.5988 54.5339 35.0401C54.5339 34.4767 54.6428 33.9843 54.8606 33.5629C55.0784 33.1391 55.3874 32.81 55.7875 32.5756C56.1899 32.3389 56.667 32.2205 57.2186 32.2205C57.7702 32.2205 58.246 32.3389 58.6461 32.5756C59.0486 32.81 59.3587 33.1391 59.5765 33.5629C59.7943 33.9843 59.9032 34.4767 59.9032 35.0401C59.9032 35.5988 59.7943 36.0901 59.5765 36.5138C59.3587 36.9353 59.0486 37.2643 58.6461 37.5011C58.246 37.7354 57.7702 37.8526 57.2186 37.8526ZM57.2257 36.6808C57.4766 36.6808 57.6861 36.6097 57.8542 36.4677C58.0223 36.3233 58.149 36.1268 58.2342 35.8782C58.3218 35.6296 58.3656 35.3467 58.3656 35.0295C58.3656 34.7122 58.3218 34.4293 58.2342 34.1808C58.149 33.9322 58.0223 33.7357 57.8542 33.5913C57.6861 33.4469 57.4766 33.3746 57.2257 33.3746C56.9724 33.3746 56.7593 33.4469 56.5865 33.5913C56.416 33.7357 56.287 33.9322 56.1994 34.1808C56.1142 34.4293 56.0716 34.7122 56.0716 35.0295C56.0716 35.3467 56.1142 35.6296 56.1994 35.8782C56.287 36.1268 56.416 36.3233 56.5865 36.4677C56.7593 36.6097 56.9724 36.6808 57.2257 36.6808ZM65.7963 32.2915L63.8894 37.7461H62.1848L60.2779 32.2915H61.8759L63.0087 36.1942H63.0655L64.1948 32.2915H65.7963ZM66.5705 37.7461V32.2915H68.0833V37.7461H66.5705ZM67.3304 31.5884C67.1055 31.5884 66.9126 31.5138 66.7516 31.3647C66.593 31.2132 66.5137 31.0321 66.5137 30.8214C66.5137 30.613 66.593 30.4343 66.7516 30.2852C66.9126 30.1336 67.1055 30.0579 67.3304 30.0579C67.5553 30.0579 67.7471 30.1336 67.9057 30.2852C68.0667 30.4343 68.1472 30.613 68.1472 30.8214C68.1472 31.0321 68.0667 31.2132 67.9057 31.3647C67.7471 31.5138 67.5553 31.5884 67.3304 31.5884ZM71.7809 37.8526C71.2198 37.8526 70.7369 37.739 70.332 37.5117C69.9296 37.2821 69.6194 36.9577 69.4016 36.5387C69.1838 36.1173 69.0749 35.619 69.0749 35.0437C69.0749 34.4826 69.1838 33.9902 69.4016 33.5664C69.6194 33.1426 69.926 32.8124 70.3214 32.5756C70.7191 32.3389 71.1855 32.2205 71.7205 32.2205C72.0804 32.2205 72.4154 32.2785 72.7255 32.3945C73.038 32.5082 73.3103 32.6798 73.5423 32.9094C73.7766 33.1391 73.9589 33.4279 74.0891 33.7759C74.2193 34.1216 74.2844 34.5264 74.2844 34.9904V35.4059H69.6786V34.4684H72.8604C72.8604 34.2506 72.8131 34.0576 72.7184 33.8896C72.6237 33.7215 72.4923 33.5901 72.3242 33.4954C72.1585 33.3983 71.9656 33.3498 71.7454 33.3498C71.5157 33.3498 71.3121 33.4031 71.1346 33.5096C70.9594 33.6138 70.8221 33.7546 70.7227 33.9322C70.6232 34.1074 70.5723 34.3027 70.57 34.5181V35.4094C70.57 35.6793 70.6197 35.9125 70.7191 36.109C70.8209 36.3055 70.9641 36.457 71.1488 36.5636C71.3335 36.6701 71.5524 36.7234 71.8058 36.7234C71.9738 36.7234 72.1277 36.6997 72.2674 36.6523C72.4071 36.605 72.5266 36.534 72.6261 36.4393C72.7255 36.3446 72.8013 36.2286 72.8533 36.0913L74.2525 36.1836C74.1815 36.5198 74.0359 36.8133 73.8157 37.0643C73.5979 37.3129 73.3162 37.507 72.9705 37.6467C72.6272 37.784 72.2307 37.8526 71.7809 37.8526ZM79.81 33.8469L78.4251 33.9322C78.4014 33.8138 78.3505 33.7073 78.2724 33.6126C78.1942 33.5155 78.0913 33.4386 77.9634 33.3817C77.8379 33.3226 77.6876 33.293 77.5124 33.293C77.2781 33.293 77.0804 33.3427 76.9194 33.4421C76.7584 33.5392 76.6779 33.6694 76.6779 33.8327C76.6779 33.9629 76.73 34.073 76.8342 34.163C76.9383 34.253 77.1171 34.3252 77.3704 34.3796L78.3576 34.5785C78.8879 34.6874 79.2833 34.8626 79.5437 35.104C79.8041 35.3455 79.9343 35.6628 79.9343 36.0558C79.9343 36.4132 79.829 36.7269 79.6183 36.9968C79.4099 37.2667 79.1235 37.4774 78.7589 37.6289C78.3967 37.7781 77.9788 37.8526 77.5053 37.8526C76.7833 37.8526 76.208 37.7023 75.7795 37.4016C75.3533 37.0986 75.1036 36.6867 75.0302 36.1658L76.5181 36.0877C76.5631 36.3079 76.672 36.476 76.8448 36.592C77.0176 36.7056 77.239 36.7624 77.5089 36.7624C77.774 36.7624 77.9871 36.7115 78.1481 36.6097C78.3114 36.5056 78.3943 36.3718 78.3967 36.2085C78.3943 36.0711 78.3363 35.9587 78.2227 35.8711C78.109 35.7811 77.9338 35.7125 77.6971 35.6651L76.7525 35.4769C76.2198 35.3704 75.8233 35.1857 75.5629 34.9229C75.3048 34.6602 75.1758 34.3252 75.1758 33.918C75.1758 33.5676 75.2705 33.2657 75.4599 33.0124C75.6516 32.7591 75.9203 32.5638 76.266 32.4265C76.614 32.2892 77.0212 32.2205 77.4876 32.2205C78.1765 32.2205 78.7186 32.3661 79.114 32.6573C79.5117 32.9485 79.7437 33.3451 79.81 33.8469Z" fill="white"/>
<defs>
<filter id="filter0_df_734_249" x="0.266574" y="-4.0668" width="93.467" height="45.8797" filterUnits="userSpaceOnUse" color-interpolation-filters="sRGB">
<feFlood flood-opacity="0" result="BackgroundImageFix"/>
<feColorMatrix in="SourceAlpha" type="matrix" values="0 0 0 0 0 0 0 0 0 0 0 0 0 0 0 0 0 0 127 0" result="hardAlpha"/>
<feOffset/>
<feGaussianBlur stdDeviation="6.5334"/>
<feColorMatrix type="matrix" values="0 0 0 0 0.8625 0 0 0 0 0.14375 0 0 0 0 0.14375 0 0 0 1 0"/>
<feBlend mode="normal" in2="BackgroundImageFix" result="effect1_dropShadow_734_249"/>
<feBlend mode="normal" in="SourceGraphic" in2="effect1_dropShadow_734_249" result="shape"/>
<feGaussianBlur stdDeviation="0.8166" result="effect2_foregroundBlur_734_249"/>
</filter>
<filter id="filter1_d_734_249" x="13.7098" y="9.3763" width="66.5806" height="18.9935" filterUnits="userSpaceOnUse" color-interpolation-filters="sRGB">
<feFlood flood-opacity="0" result="BackgroundImageFix"/>
<feColorMatrix in="SourceAlpha" type="matrix" values="0 0 0 0 0 0 0 0 0 0 0 0 0 0 0 0 0 0 127 0" result="hardAlpha"/>
<feOffset/>
<feGaussianBlur stdDeviation="0.2618"/>
<feColorMatrix type="matrix" values="0 0 0 0 1 0 0 0 0 1 0 0 0 0 1 0 0 0 1 0"/>
<feBlend mode="normal" in2="BackgroundImageFix" result="effect1_dropShadow_734_249"/>
<feBlend mode="normal" in="SourceGraphic" in2="effect1_dropShadow_734_249" result="shape"/>
</filter>
</defs>
</svg>
